# xmcd
#
# Track frame offsets:
#	150
#	16322
#	32637
#	48155
#	66722
#	84567
#	100320
#	116900
#	130282
#	147105
#	163552
#	176807
#	194157
#
# Disc length: 2740 seconds
#
# Revision: 0
# Processed by: cddbd v1.4PL0 Copyright (c) Steve Scherf et al.
# Submitted via: dBpowerAMP V4.0
#
DISCID=bf0ab20d
DTITLE=Boppin' blues band - Happy go Lucky
DYEAR=1900
DGENRE=
TTITLE0=Happy go lucky blues
TTITLE1=Baby please give in
TTITLE2=Bad john
TTITLE3=Sensible shoes
TTITLE4=Come home baby
TTITLE5=Way down south
TTITLE6=Love this rhythm
TTITLE7=Swingin' and grinnin'
TTITLE8=I must love you
TTITLE9=Swingne ta peine
TTITLE10=Country cabin hideaway
TTITLE11=Look at little sister
TTITLE12=Jumpin' the blues
EXTD=
EXTT0=
EXTT1=
EXTT2=
EXTT3=
EXTT4=
EXTT5=
EXTT6=
EXTT7=
EXTT8=
EXTT9=
EXTT10=
EXTT11=
EXTT12=
PLAYORDER=
